<svg width="24" height="24" viewBox="0 0 24 24" fill="none" xmlns="http://www.w3.org/2000/svg">
<g clip-path="url(#clip0_1_414)">
<path d="M12 24C12.7956 24 13.5587 23.6839 14.1213 23.1213C14.6839 22.5587 15 21.7956 15 21H9C9 21.7956 9.31607 22.5587 9.87868 23.1213C10.4413 23.6839 11.2043 24 12 24Z" fill="white"/>
<path fill-rule="evenodd" clip-rule="evenodd" d="M12 2.87699L10.8045 3.11849C9.44848 3.39479 8.22953 4.13115 7.35402 5.20293C6.4785 6.2747 6.00019 7.61607 6.00004 8.99999C6.00004 9.94199 5.79904 12.2955 5.31154 14.613C5.07154 15.7635 4.74754 16.962 4.31704 18H19.683C19.2525 16.962 18.93 15.765 18.6885 14.613C18.201 12.2955 18 9.94199 18 8.99999C17.9995 7.61633 17.5211 6.27531 16.6456 5.20384C15.7701 4.13238 14.5513 3.39624 13.1955 3.11999L12 2.87549V2.87699ZM21.33 18C21.6645 18.6705 22.0515 19.2015 22.5 19.5H1.50004C1.94854 19.2015 2.33554 18.6705 2.67004 18C4.02004 15.3 4.50004 10.32 4.50004 8.99999C4.50004 5.36999 7.08004 2.33999 10.5075 1.64849C10.4866 1.43992 10.5096 1.22928 10.5751 1.03015C10.6406 0.831024 10.747 0.647828 10.8877 0.492381C11.0283 0.336934 11.1999 0.212686 11.3915 0.127651C11.5831 0.0426158 11.7904 -0.00131836 12 -0.00131836C12.2097 -0.00131836 12.4169 0.0426158 12.6085 0.127651C12.8001 0.212686 12.9718 0.336934 13.1124 0.492381C13.253 0.647828 13.3595 0.831024 13.425 1.03015C13.4905 1.22928 13.5135 1.43992 13.4925 1.64849C15.188 1.99334 16.7121 2.91353 17.8069 4.25324C18.9017 5.59295 19.4998 7.26985 19.5 8.99999C19.5 10.32 19.98 15.3 21.33 18Z" fill="white"/>
<circle cx="18" cy="5.99999" r="4.28571" fill="#FFAB7B"/>
</g>
<defs>
<clipPath id="clip0_1_414">
<rect width="23.3333" height="23.3333" fill="white" transform="scale(1.02857)"/>
</clipPath>
</defs>
</svg>
