<svg width="18" height="18" viewBox="0 0 18 18" fill="none" xmlns="http://www.w3.org/2000/svg">
<path fill-rule="evenodd" clip-rule="evenodd" d="M12.7732 7.14825C12.721 7.20064 12.6589 7.2422 12.5906 7.27055C12.5222 7.29891 12.449 7.31351 12.375 7.31351C12.301 7.31351 12.2277 7.29891 12.1594 7.27055C12.091 7.2422 12.029 7.20064 11.9767 7.14825L8.99997 4.17038L6.02322 7.14825C5.9176 7.25387 5.77434 7.31321 5.62497 7.31321C5.4756 7.31321 5.33234 7.25388 5.22672 7.14825C5.1211 7.04263 5.06176 6.89938 5.06176 6.75C5.06176 6.60063 5.1211 6.45737 5.22672 6.35175L8.60172 2.97675C8.65397 2.92437 8.71605 2.88281 8.78438 2.85445C8.85272 2.82609 8.92598 2.8115 8.99997 2.8115C9.07396 2.8115 9.14722 2.82609 9.21556 2.85445C9.2839 2.88281 9.34597 2.92437 9.39822 2.97675L12.7732 6.35175C12.8256 6.404 12.8672 6.46608 12.8955 6.53441C12.9239 6.60275 12.9385 6.67601 12.9385 6.75C12.9385 6.82399 12.9239 6.89725 12.8955 6.96559C12.8672 7.03393 12.8256 7.096 12.7732 7.14825Z" fill="white"/>
<path fill-rule="evenodd" clip-rule="evenodd" d="M9 15.1875C8.85082 15.1875 8.70774 15.1282 8.60225 15.0227C8.49676 14.9173 8.4375 14.7742 8.4375 14.625L8.4375 4.5C8.4375 4.35082 8.49676 4.20774 8.60225 4.10225C8.70774 3.99676 8.85081 3.9375 9 3.9375C9.14918 3.9375 9.29226 3.99676 9.39775 4.10225C9.50324 4.20774 9.5625 4.35082 9.5625 4.5L9.5625 14.625C9.5625 14.7742 9.50324 14.9173 9.39775 15.0227C9.29226 15.1282 9.14918 15.1875 9 15.1875Z" fill="white"/>
</svg>
